<?xml version="1.0" standalone="no"?>
<!DOCTYPE svg PUBLIC "-//W3C//DTD SVG 20010904//EN"
 "http://www.w3.org/TR/2001/REC-SVG-20010904/DTD/svg10.dtd">
<svg version="1.0" xmlns="http://www.w3.org/2000/svg"
 width="512.000000pt" height="512.000000pt" viewBox="0 0 512.000000 512.000000"
 preserveAspectRatio="xMidYMid meet">

<g transform="translate(0.000000,512.000000) scale(0.100000,-0.100000)"
fill="#000000" stroke="none">
<path d="M3322 5020 c-114 -30 -186 -74 -282 -170 -61 -61 -102 -115 -147
-190 -69 -117 -124 -177 -198 -213 -89 -44 -149 -51 -375 -41 -267 12 -385 9
-462 -10 -290 -73 -482 -338 -465 -642 10 -181 97 -345 239 -449 l28 -20 -29
-90 c-56 -173 -79 -384 -62 -548 15 -132 50 -258 99 -352 40 -75 135 -180 213
-232 55 -38 190 -106 242 -123 34 -11 37 -14 37 -50 0 -91 -62 -202 -138 -251
-92 -58 -178 -81 -510 -134 -198 -31 -311 -63 -417 -115 -253 -123 -400 -378
-351 -608 46 -222 239 -401 551 -512 192 -68 545 -140 840 -172 187 -20 743
-17 930 6 408 49 741 136 970 255 69 35 110 65 176 131 99 98 140 171 165 293
51 251 -117 514 -405 637 -97 41 -203 65 -428 95 -105 14 -222 35 -260 46
-197 61 -309 168 -325 312 -3 27 1 30 102 68 143 54 248 119 345 214 233 227
294 553 181 967 -14 52 -33 112 -41 131 -8 20 -15 41 -15 46 0 6 21 22 48 37
193 108 352 250 451 405 251 386 204 878 -108 1135 -174 144 -395 197 -599
144z m288 -72 c68 -16 165 -63 235 -112 109 -78 196 -201 242 -341 37 -111 39
-299 5 -424 -13 -47 -26 -89 -29 -94 -3 -5 -24 10 -47 32 -33 32 -45 38 -54
29 -9 -9 -4 -20 25 -50 l37 -38 -32 -32 -31 -32 -25 23 c-24 23 -46 22 -46 -3
0 -7 9 -21 20 -31 20 -19 20 -19 -10 -50 -23 -24 -27 -34 -18 -43 9 -9 19 -5
43 18 21 20 34 27 44 20 20 -12 -35 -94 -125 -190 -69 -73 -83 -80 -104 -55
-11 14 -7 23 30 60 36 37 48 43 72 38 20 -4 28 -2 28 9 0 16 -111 128 -127
128 -26 0 -22 -22 13 -60 l37 -41 -46 -47 -47 -46 -34 33 c-31 30 -36 32 -42
17 -4 -11 3 -27 22 -47 l28 -29 -89 -90 c-49 -50 -92 -90 -95 -90 -3 0 -19 27
-36 60 l-31 59 21 20 c21 19 21 19 56 -10 61 -52 84 -30 28 28 l-32 33 33 34
c31 32 35 56 8 56 -6 0 -25 -13 -42 -29 l-30 -30 -46 44 -47 44 24 22 c26 24
32 49 12 49 -7 0 -33 -20 -58 -45 l-46 -45 -39 40 -39 40 32 -6 c34 -7 38 -3
22 25 -7 14 -4 24 15 41 47 44 24 75 -25 34 l-31 -27 -49 48 c-27 27 -50 58
-52 69 -2 12 -10 21 -20 21 -9 0 -20 4 -24 8 -4 4 -16 7 -26 7 -21 0 -24 -20
-6 -38 10 -10 9 -16 -4 -29 -16 -15 -22 -14 -85 15 -126 57 -235 84 -373 89
-139 6 -206 -5 -334 -55 -209 -81 -425 -299 -541 -545 l-37 -77 -29 20 c-72
52 -146 169 -174 277 -8 31 -15 91 -15 133 1 243 138 438 364 518 82 29 198
33 511 18 151 -7 192 -6 255 8 169 36 262 112 371 305 113 201 232 293 413
321 58 9 159 4 226 -12z m-862 -1004 c167 -34 304 -109 432 -234 100 -98 152
-171 217 -305 25 -52 49 -95 53 -95 17 0 60 -123 78 -222 l19 -106 -51 -51
c-28 -28 -59 -51 -69 -51 -27 0 -20 -33 13 -65 l30 -29 -41 -42 c-37 -38 -45
-64 -18 -64 5 0 27 16 49 37 l41 36 30 -29 c30 -28 31 -31 25 -91 -14 -135
-79 -287 -165 -383 l-50 -55 -28 28 -28 27 32 32 c31 30 33 31 51 15 37 -33
58 -12 25 25 -16 18 -14 21 27 63 24 25 50 45 57 45 23 0 14 25 -22 60 -19 19
-35 39 -35 45 0 6 15 26 33 43 30 29 35 31 47 17 7 -8 19 -15 26 -15 26 0 14
36 -26 75 -32 31 -43 36 -52 27 -10 -10 -10 -17 -1 -31 10 -16 6 -24 -23 -52
-19 -19 -43 -34 -52 -34 -9 0 -17 -8 -17 -17 0 -10 -17 -35 -38 -56 -31 -32
-35 -41 -24 -50 11 -9 21 -4 47 23 40 41 49 43 78 12 l22 -23 -45 -44 -45 -44
-38 37 c-30 29 -41 34 -50 25 -9 -9 -4 -20 25 -50 l37 -38 -29 -30 c-22 -23
-31 -27 -42 -18 -8 6 -12 20 -11 32 3 18 -2 21 -37 21 -34 0 -40 -3 -38 -21 1
-13 -13 -36 -37 -59 l-40 -39 -24 23 c-40 38 -64 6 -26 -34 l20 -21 -35 -34
-35 -34 -32 31 c-27 27 -30 34 -18 48 10 12 10 19 1 28 -8 8 -24 -2 -66 -43
-51 -50 -57 -53 -76 -41 -30 18 -49 -2 -26 -27 16 -17 15 -20 -21 -55 l-38
-37 -33 34 c-20 21 -29 36 -22 40 15 10 14 36 -1 36 -7 0 -34 -21 -60 -47
l-48 -47 -35 34 -35 34 -40 -39 -40 -39 -23 22 c-44 41 -66 19 -25 -25 l21
-23 -22 -24 c-27 -29 -62 -24 -79 12 -11 24 -9 29 20 59 25 26 29 36 20 45 -9
9 -20 4 -47 -22 -33 -32 -36 -33 -53 -17 -37 33 -58 12 -25 -25 29 -32 3 -40
-57 -17 -348 132 -504 384 -487 789 24 557 355 1044 772 1135 84 19 241 18
333 -1z m458 -132 c-3 -2 -32 15 -65 39 -48 34 -58 45 -49 56 9 12 21 4 64
-38 30 -29 52 -55 50 -57z m812 63 c-10 -23 -28 -34 -28 -18 0 7 31 43 36 43
2 0 -2 -11 -8 -25z m-623 -233 c35 -40 37 -44 22 -59 -9 -9 -18 -15 -20 -12
-30 36 -67 102 -62 110 9 14 16 10 60 -39z m325 -87 c11 -13 9 -20 -15 -45
-29 -30 -145 -97 -145 -83 0 9 132 143 141 143 4 0 12 -7 19 -15z m-161 -697
c1 -21 -3 -26 -14 -22 -8 4 -22 0 -31 -7 -12 -10 -18 -9 -32 4 -15 16 -13 20
23 57 39 40 40 40 47 18 3 -13 6 -35 7 -50z m5 -77 c6 -33 6 -34 -13 -17 -16
15 -18 22 -8 37 13 22 12 23 21 -20z m-362 -564 c-56 -58 -33 -81 25 -25 l33
32 25 -24 c28 -27 27 -31 -28 -71 l-41 -30 -48 48 -48 47 42 43 c37 38 44 41
57 28 13 -13 11 -19 -17 -48z m-67 -97 c21 -22 37 -41 34 -44 -13 -12 -113
-56 -169 -74 -58 -19 -249 -52 -296 -52 -16 0 -17 2 -4 10 8 5 23 7 33 4 16
-5 21 4 18 32 0 5 15 25 34 44 l35 34 30 -29 c16 -16 30 -35 30 -42 0 -24 36
-13 70 22 26 27 41 35 57 30 25 -6 41 11 24 28 -8 8 -3 20 21 44 18 18 35 33
38 33 3 0 23 -18 45 -40z m-202 2 l27 -28 -28 -27 -28 -27 -29 30 -29 30 24
25 c13 14 26 25 30 25 3 0 18 -13 33 -28z m-441 -138 c-15 -18 -34 -33 -42
-33 -13 -1 -13 1 0 9 12 7 11 12 -5 29 -18 21 -18 22 5 46 l24 25 23 -21 22
-22 -27 -33z m172 48 c24 -26 25 -30 11 -42 -8 -7 -15 -18 -15 -25 0 -16 -97
-29 -128 -18 -23 9 -23 9 -4 26 17 16 21 16 32 2 7 -8 18 -15 26 -15 22 0 27
20 8 41 -16 18 -16 20 1 39 24 27 36 25 69 -8z m-244 -67 c11 -13 8 -15 -14
-15 -25 0 -33 10 -19 23 10 11 19 8 33 -8z m-27 -91 c118 -16 313 -15 437 2
l46 6 12 -61 c9 -42 27 -81 56 -124 l44 -64 -48 -64 c-56 -75 -121 -127 -211
-168 -138 -64 -196 -64 -336 3 -75 36 -187 132 -224 193 l-22 35 36 67 c20 37
42 96 49 134 9 49 16 66 26 62 8 -3 68 -12 135 -21z m-287 -321 c36 -55 120
-137 186 -180 36 -23 69 -43 71 -43 2 0 25 -9 50 -20 l45 -20 -87 -88 c-47
-49 -104 -118 -126 -155 -22 -36 -42 -66 -45 -67 -3 0 -26 41 -50 90 -51 107
-141 249 -216 342 -30 37 -54 71 -54 76 0 4 24 16 53 25 28 9 72 28 97 41 25
14 48 25 51 26 4 0 15 -12 25 -27z m1033 -17 c48 -23 93 -45 101 -48 10 -3 -7
-31 -55 -93 -80 -102 -179 -263 -220 -358 l-29 -66 -49 77 c-27 42 -87 114
-133 160 -64 64 -79 84 -66 88 9 3 50 22 90 42 79 38 204 146 242 208 12 18
24 34 27 34 3 0 44 -20 92 -44z m-1289 -142 c123 -154 210 -298 275 -459 36
-89 44 -100 65 -100 20 0 31 11 52 50 15 28 29 54 31 59 2 5 21 -3 42 -17 22
-14 61 -31 88 -38 26 -6 47 -15 47 -19 0 -4 -7 -45 -15 -91 -34 -181 -86 -343
-170 -527 l-39 -84 -70 7 c-353 32 -756 124 -959 218 -324 150 -460 411 -343
659 74 156 227 272 434 330 71 19 428 85 479 87 15 1 39 -20 83 -75z m1700 41
c235 -31 321 -53 437 -110 67 -33 110 -63 161 -113 65 -63 132 -160 132 -191
0 -22 -32 -41 -48 -29 -18 16 -41 -7 -24 -24 9 -9 3 -21 -24 -50 -33 -37 -37
-58 -11 -58 6 0 26 14 44 32 l33 32 30 -29 c16 -16 30 -39 30 -52 0 -30 -11
-29 -40 2 -13 14 -29 25 -36 25 -20 0 -27 -19 -13 -36 10 -13 7 -21 -23 -51
-32 -31 -37 -34 -56 -22 -17 11 -24 11 -34 1 -9 -9 -8 -16 5 -30 16 -17 15
-20 -18 -52 -29 -28 -35 -31 -41 -17 -10 28 -38 19 -84 -28 -41 -42 -45 -44
-62 -29 -10 10 -25 14 -34 10 -15 -6 -15 -9 4 -29 l22 -23 -58 -57 -58 -57
-32 33 -32 33 40 39 c44 43 48 53 24 62 -11 4 -43 -21 -103 -81 l-87 -86 -33
34 c-20 21 -29 36 -22 40 15 10 14 36 -2 36 -7 0 -37 -25 -67 -55 -35 -35 -61
-53 -74 -52 -16 1 -21 -4 -20 -20 0 -14 -16 -39 -43 -65 -35 -34 -47 -41 -60
-32 -39 25 -39 42 0 82 38 38 47 62 25 62 -7 0 -47 -35 -90 -77 -67 -66 -79
-75 -93 -63 -23 19 -44 -2 -25 -25 11 -13 11 -19 -3 -32 -14 -14 -18 -14 -42
6 -43 33 -63 7 -26 -33 19 -21 19 -21 -10 -53 -29 -33 -44 -40 -53 -25 -2 4
-57 178 -120 386 l-116 379 37 42 c21 24 42 42 47 41 6 -1 34 -46 64 -99 68
-121 92 -127 122 -32 38 119 130 283 241 430 97 128 102 134 118 135 8 0 98
-11 201 -25z m-931 -209 c25 -19 63 -52 84 -74 47 -48 44 -75 -13 -126 -73
-66 -224 -87 -310 -43 -25 12 -46 29 -48 38 -2 10 17 41 41 70 44 55 172 169
190 169 5 0 30 -15 56 -34z m1681 -278 c0 -16 -3 -19 -11 -11 -6 6 -8 16 -5
22 11 17 16 13 16 -11z m-1535 -417 c58 -189 105 -350 105 -358 0 -11 -52 -13
-280 -13 -154 0 -280 2 -280 4 0 2 19 43 41 92 73 158 143 391 174 585 5 35 8
37 63 51 50 12 58 11 65 -2 4 -8 55 -170 112 -359z m1509 253 c22 -8 20 -35
-5 -87 l-22 -45 -30 35 -30 34 33 35 c19 18 35 34 36 34 1 0 9 -3 18 -6z m-45
-161 c2 -2 -32 -38 -75 -81 -65 -64 -98 -87 -183 -129 l-104 -51 -25 30 -25
30 56 56 57 56 33 -32 c58 -56 81 -33 25 25 l-32 33 37 37 37 37 44 -43 c31
-31 50 -42 67 -39 32 4 39 38 8 38 -12 0 -31 8 -41 17 -18 16 -17 18 14 50
l32 33 35 -32 c20 -18 38 -34 40 -35z m-694 -232 l-35 -36 -32 33 -32 32 34
35 34 35 33 -32 33 -32 -35 -35z m190 59 l29 -30 -22 -23 c-41 -43 -18 -65 30
-28 23 18 25 18 47 2 l23 -18 -41 -16 c-23 -10 -47 -17 -54 -17 -7 0 -35 22
-62 50 l-49 50 29 30 c16 16 32 30 35 30 3 0 19 -13 35 -30z m-280 -152 c-28
-33 -31 -48 -12 -49 49 -2 -167 -43 -343 -64 -46 -6 -53 -5 -42 6 7 8 20 14
30 14 10 0 18 9 20 22 2 12 10 27 18 34 11 9 19 6 40 -15 29 -28 39 -32 50
-15 3 6 -6 24 -22 40 l-28 29 24 25 24 25 27 -26 c23 -22 26 -30 16 -45 -15
-23 -1 -37 22 -22 13 8 22 8 29 1 6 -6 18 -8 27 -5 13 6 13 10 3 27 -11 17 -8
25 32 65 l44 45 33 -32 32 -31 -24 -29z m200 52 c21 -22 36 -42 33 -46 -7 -7
-186 -54 -207 -54 -11 0 -10 5 4 20 10 11 28 19 39 18 16 -2 21 3 21 19 1 20
50 83 65 83 3 0 23 -18 45 -40z"/>
<path d="M2550 3780 c0 -14 -7 -20 -22 -20 -13 0 -40 -3 -61 -7 -33 -5 -39 -3
-44 16 -3 12 -13 21 -25 21 -16 0 -19 -5 -13 -29 6 -27 3 -30 -40 -45 -45 -15
-48 -15 -76 6 -22 17 -32 19 -41 10 -9 -9 -7 -16 7 -32 10 -11 16 -22 14 -24
-2 -2 -28 -20 -57 -40 -52 -34 -54 -35 -79 -19 -21 14 -26 14 -34 2 -6 -10 -3
-19 10 -30 19 -16 18 -18 -30 -65 -38 -37 -52 -45 -61 -36 -17 17 -48 15 -48
-3 0 -8 9 -19 20 -25 19 -10 18 -13 -23 -73 -37 -57 -44 -62 -64 -54 -12 5
-30 6 -40 3 -16 -7 -15 -10 11 -31 l29 -23 -21 -49 c-15 -35 -27 -49 -44 -51
-47 -7 -61 -42 -16 -42 22 0 22 1 -3 -93 -10 -36 -11 -37 -44 -31 -29 5 -35 3
-35 -11 0 -9 13 -22 30 -28 27 -10 29 -13 23 -54 -5 -39 -4 -43 16 -43 15 0
21 6 21 21 0 12 4 38 9 58 5 20 15 62 22 95 7 32 18 60 25 63 7 2 12 17 12 31
0 37 34 107 52 107 10 0 15 10 15 32 1 43 63 134 90 131 16 -2 20 3 20 24 0
17 13 40 34 62 34 35 61 46 61 26 0 -5 7 -10 16 -10 13 0 15 7 11 29 -5 25 -1
32 31 53 77 51 80 52 97 18 17 -33 45 -41 45 -12 0 10 -7 27 -15 39 -14 20
-13 22 30 36 l44 16 21 -34 c11 -18 27 -36 36 -39 24 -9 28 21 5 51 -25 31
-19 37 47 46 42 5 43 5 59 -34 21 -54 48 -53 39 2 l-6 41 71 -4 c47 -2 73 1
76 8 5 16 -17 23 -97 30 -44 4 -71 12 -74 20 -8 22 -36 17 -36 -6z"/>
<path d="M2219 3440 c-46 -24 -105 -92 -120 -138 -6 -19 -9 -61 -7 -94 4 -55
8 -64 44 -98 104 -97 274 -61 337 72 43 91 2 219 -85 264 -39 20 -126 17 -169
-6z m141 -63 c33 -26 50 -62 50 -109 0 -141 -212 -190 -245 -57 -8 31 16 93
48 128 42 45 115 64 147 38z"/>
<path d="M2859 3440 c-44 -23 -96 -81 -116 -128 -21 -51 -20 -134 3 -174 52
-89 212 -105 313 -30 107 79 89 276 -31 338 -39 20 -126 17 -169 -6z m147 -68
c31 -25 44 -55 44 -102 0 -81 -57 -134 -144 -134 -42 0 -52 4 -77 32 -33 37
-35 57 -14 110 39 91 136 139 191 94z"/>
<path d="M2895 2545 c-102 -50 -175 -66 -315 -72 -141 -6 -234 9 -327 52 -64
29 -95 31 -117 9 -64 -63 62 -252 218 -330 69 -33 86 -38 176 -42 87 -4 109
-1 182 21 140 44 257 137 314 249 30 60 30 93 -1 123 -31 32 -45 31 -130 -10z
m58 -87 c-34 -61 -116 -133 -193 -171 -158 -78 -326 -65 -450 33 -35 28 -100
113 -100 131 0 4 19 -1 43 -11 164 -72 488 -61 656 24 62 31 65 31 44 -6z"/>
<path d="M3064 1459 c-3 -6 -17 -8 -29 -5 -28 7 -42 -9 -24 -30 17 -20 -14
-54 -43 -46 -18 4 -20 2 -14 -25 8 -35 -11 -58 -34 -43 -23 15 -50 12 -50 -5
0 -9 11 -20 25 -27 24 -11 24 -12 8 -38 -10 -17 -13 -35 -9 -46 7 -18 9 -17
29 7 12 14 30 29 41 33 11 4 16 12 12 22 -7 19 11 57 24 49 9 -5 24 12 25 30
3 28 18 45 36 40 27 -9 41 3 30 23 -6 12 -5 24 5 36 7 10 11 23 8 27 -7 12
-32 11 -40 -2z"/>
<path d="M1026 954 c-3 -9 -6 -26 -6 -39 0 -13 -10 -31 -21 -39 -23 -16 -20
-50 3 -41 19 8 43 -82 27 -101 -6 -8 -9 -21 -5 -29 4 -12 10 -14 26 -5 16 9
25 5 54 -27 l35 -38 -22 -23 c-16 -17 -18 -25 -9 -34 9 -9 18 -7 40 9 l29 21
42 -27 c36 -24 40 -30 26 -41 -8 -7 -15 -19 -15 -26 0 -19 30 -18 52 3 17 15
21 15 53 0 32 -15 34 -19 23 -36 -18 -29 -1 -38 34 -18 29 16 33 17 73 1 33
-12 42 -20 38 -34 -7 -26 12 -32 32 -10 9 10 22 17 28 15 7 -2 31 -9 55 -15
31 -8 42 -16 42 -30 0 -24 13 -26 34 -4 9 8 24 13 33 11 10 -3 30 -8 45 -11
20 -5 25 -10 21 -26 -7 -24 18 -27 37 -4 10 11 30 15 81 12 37 -1 71 1 74 4
14 14 -6 26 -55 32 l-50 7 16 24 c15 23 15 25 -2 32 -12 4 -24 -2 -38 -20 -22
-27 -52 -33 -89 -18 -17 6 -17 8 -3 20 20 17 21 41 2 41 -8 0 -28 -11 -44 -25
-17 -14 -36 -23 -44 -21 -7 3 -33 10 -57 16 l-44 12 29 23 c23 18 26 26 17 36
-12 12 -19 9 -78 -35 -9 -6 -28 -5 -55 3 -35 10 -39 15 -29 27 21 25 -6 42
-31 19 -19 -17 -21 -17 -60 0 l-41 18 26 27 c47 49 23 71 -26 24 -31 -29 -56
-28 -99 5 -21 17 -22 21 -10 35 20 26 -3 45 -28 23 -17 -16 -20 -14 -57 23
-38 39 -38 40 -20 60 24 26 6 52 -20 30 -14 -12 -18 -11 -26 1 -14 22 -11 57
7 67 20 11 14 48 -7 45 -12 -2 -14 5 -11 32 3 26 0 35 -11 35 -8 0 -18 -7 -21
-16z"/>
</g>
</svg>
