<svg width="25" height="25" viewBox="0 0 25 25" fill="none" xmlns="http://www.w3.org/2000/svg">
<g clip-path="url(#clip0_16_239)">
<path d="M12.3338 13.0278C12.4699 13.117 12.622 13.1599 12.7732 13.1599C13.0336 13.1599 13.2888 13.0334 13.4418 12.7998C13.6849 12.4307 13.5831 11.9345 13.2139 11.6914C11.5131 10.5717 10.6062 9.33155 10.36 7.78981C10.2465 7.06527 10.3973 5.96551 10.9987 5.2627C11.3887 4.8073 11.9031 4.58543 12.5717 4.58543C13.8829 4.58543 14.4194 5.51665 14.6226 6.07127C15.1135 7.40935 14.7084 9.07507 13.6814 9.94471C13.3439 10.2307 13.3023 10.7355 13.5874 11.0722C13.8733 11.4102 14.3777 11.4518 14.7149 11.1663C16.2536 9.86371 16.8464 7.48953 16.1249 5.52094C15.5433 3.93369 14.2148 2.98602 12.5716 2.98602C11.4398 2.98602 10.4752 3.41369 9.78231 4.2227C8.78352 5.39136 8.61756 7.0081 8.77962 8.0398C9.20348 10.6922 11.0113 12.1568 12.3338 13.0278Z" fill="#5F6C72"/>
<path d="M18.6352 20.4145H7.21073C7.23979 16.8314 7.46121 15.7672 7.56043 15.4699C7.77883 14.8161 8.67621 14.1435 9.46183 13.7042C10.1716 14.8222 11.2987 15.4886 12.5514 15.4886H12.5519C13.7903 15.4882 14.9078 14.8222 15.6142 13.7046C16.3998 14.144 17.2959 14.8165 17.5138 15.4695C17.7955 16.3158 17.7795 17.5057 17.7665 18.4616C17.7639 18.6579 17.7612 18.8451 17.7612 19.0189C17.7612 19.4609 18.1192 19.8188 18.5612 19.8188C19.0031 19.8188 19.3611 19.4609 19.3611 19.0189C19.3611 18.852 19.3637 18.6722 19.3663 18.4833C19.3814 17.4065 19.4001 16.0667 19.0318 14.963C18.4277 13.1526 15.8646 12.0243 15.5743 11.9016C15.3767 11.8175 15.1531 11.8167 14.9547 11.8998C14.7562 11.983 14.5998 12.1421 14.52 12.3414C14.1327 13.3099 13.3969 13.8884 12.5519 13.8884C12.5515 13.8884 12.5515 13.8884 12.5515 13.8884C11.7022 13.8884 10.9378 13.2956 10.5556 12.3414C10.4754 12.1416 10.319 11.9826 10.121 11.8998C9.9225 11.8171 9.69893 11.8175 9.50133 11.9016C9.21145 12.0243 6.64791 13.1521 6.043 14.9635C5.75439 15.8301 5.6084 17.9334 5.6084 21.2141C5.6084 21.6561 5.96634 22.014 6.40832 22.014H18.6358C19.0773 22.014 19.4353 21.6565 19.4353 21.2146C19.4352 20.7725 19.0772 20.4145 18.6352 20.4145Z" fill="#5F6C72"/>
<path d="M4.97155 12.7916C3.86183 12.7916 2.95922 11.6303 2.95922 10.2034C2.95922 8.77776 3.86183 7.61779 4.97155 7.61779C5.53965 7.61779 6.10252 7.94625 6.4405 8.47445C6.6879 8.8614 7.0229 9.68427 6.48556 10.8486C6.30051 11.2499 6.4756 11.7248 6.87686 11.9103C7.27855 12.0949 7.75305 11.9202 7.93805 11.519C8.56376 10.1631 8.50873 8.73967 7.78727 7.61218C7.14858 6.61426 6.09602 6.01843 4.97111 6.01843C2.97958 6.01843 1.35938 7.89556 1.35938 10.2034C1.35938 12.5126 2.97958 14.391 4.97111 14.391C5.41309 14.391 5.77148 14.0335 5.77148 13.5916C5.77143 13.1495 5.41353 12.7916 4.97155 12.7916Z" fill="#5F6C72"/>
<path d="M3.9608 19.6533H1.62954C1.66508 18.8612 1.737 17.6834 1.86742 16.991C2.03641 16.087 2.52262 15.577 2.90088 15.3084C3.26185 15.0527 3.34632 14.5535 3.09023 14.1934C2.83457 13.8324 2.33581 13.7475 1.97528 14.0041C1.46831 14.3637 0.575666 15.1922 0.295305 16.6959C0.063038 17.9295 0.00283504 20.3319 0.000198414 20.4332C-0.00458657 20.649 0.0773442 20.857 0.227681 21.0113C0.378066 21.1655 0.584748 21.2522 0.800121 21.2522H3.96075C4.40273 21.2522 4.76068 20.8951 4.76068 20.4531C4.76072 20.0112 4.40278 19.6533 3.9608 19.6533Z" fill="#5F6C72"/>
<path d="M23.641 10.2025C23.641 7.89465 22.0208 6.01752 20.0293 6.01752C18.9039 6.01752 17.851 6.61291 17.2118 7.61082C16.4904 8.73788 16.4349 10.1618 17.0597 11.5176C17.2448 11.9184 17.7201 12.0944 18.1209 11.9094C18.5217 11.7243 18.6977 11.2494 18.5127 10.8482C17.9753 9.6834 18.3112 8.86097 18.5586 8.47397C18.897 7.94577 19.4599 7.61731 20.0289 7.61731C21.1386 7.61731 22.0412 8.77733 22.0412 10.2029C22.0412 11.6298 21.1386 12.7912 20.0289 12.7912C19.5869 12.7912 19.229 13.1491 19.229 13.5911C19.229 14.0331 19.5869 14.391 20.0289 14.391C22.0199 14.391 23.6406 12.5126 23.641 10.2025Z" fill="#5F6C72"/>
<path d="M24.7045 16.6976C24.435 15.2429 23.5874 14.4231 23.1064 14.0643C22.7524 13.8008 22.2511 13.8727 21.9868 14.2267C21.7228 14.5808 21.7956 15.0826 22.1492 15.3464C22.5085 15.6143 22.97 16.116 23.132 16.9917C23.2624 17.6833 23.3344 18.8607 23.3699 19.6523H21.0382C20.5962 19.6523 20.2383 20.0103 20.2383 20.4523C20.2383 20.8942 20.5962 21.2522 21.0382 21.2522H24.1997C24.4151 21.2522 24.6213 21.1655 24.7725 21.0108C24.9225 20.8566 25.0048 20.6482 24.9996 20.4328C24.9971 20.3314 24.9372 17.9286 24.7045 16.6976Z" fill="#5F6C72"/>
</g>
<defs>
<clipPath id="clip0_16_239">
<rect width="25" height="25" fill="white"/>
</clipPath>
</defs>
</svg>
