<svg width="90" height="84" viewBox="0 0 90 84" fill="none" xmlns="http://www.w3.org/2000/svg">
<g id="Group">
<path id="Vector" d="M10.531 47.2169C11.3789 47.2169 12.0663 46.5295 12.0663 45.6816V37.9184C12.2665 38.1258 12.478 38.377 12.7241 38.6753C13.6311 39.775 14.8735 41.2809 17.2859 41.2809C19.6984 41.2809 20.9408 39.775 21.8479 38.6755C22.6774 37.6699 23.1171 37.1866 24.041 37.1866C24.9647 37.1866 25.4044 37.6699 26.2337 38.6753C27.1406 39.7748 28.3828 41.2809 30.7951 41.2809C33.2075 41.2809 34.4497 39.775 35.3566 38.6753C36.1858 37.6697 36.6256 37.1866 37.5492 37.1866C38.4733 37.1866 38.913 37.6699 39.7423 38.6755C40.6494 39.775 41.8918 41.2809 44.3044 41.2809C46.7169 41.2809 47.9593 39.775 48.8664 38.6755C49.6959 37.6699 50.1356 37.1866 51.0595 37.1866C51.9836 37.1866 52.4235 37.6699 53.253 38.6755C54.1601 39.775 55.4025 41.2809 57.815 41.2809C60.2276 41.2809 61.47 39.775 62.3771 38.6753C63.2066 37.6697 63.6463 37.1866 64.5702 37.1866C65.4947 37.1866 65.9344 37.6699 66.7641 38.6755C67.6714 39.775 68.9138 41.2809 71.3265 41.2809C73.7393 41.2809 74.9817 39.775 75.889 38.6755C76.1353 38.377 76.3469 38.1256 76.5473 37.918V43.5325C76.5473 44.3804 77.2348 45.0679 78.0827 45.0679C78.9306 45.0679 79.618 44.3804 79.618 43.5325V31.7531C79.618 28.4281 76.913 25.7231 73.588 25.7231H63.6758V13.7479C63.6758 12.9 62.9884 12.2126 62.1404 12.2126H56.9209C56.0729 12.2126 55.3855 12.9 55.3855 13.7479V25.7231H47.5556V13.7479C47.5556 12.9 46.8682 12.2126 46.0203 12.2126H40.8003C39.9524 12.2126 39.2649 12.9 39.2649 13.7479V25.7231H31.4351V13.7479C31.4351 12.9 30.7476 12.2126 29.8997 12.2126H24.6797C23.8318 12.2126 23.1444 12.9 23.1444 13.7479V25.7231H15.0254C11.7005 25.7231 8.99561 28.4281 8.99561 31.7531V45.6818C8.99561 46.5295 9.68303 47.2169 10.531 47.2169ZM58.4562 15.2833H60.6055V25.7231H58.4562V15.2833ZM42.3358 15.2833H44.4851V25.7231H42.3358V15.2833ZM26.2155 15.2833H28.3648V25.7231H26.2155V15.2833ZM15.0254 28.7938H73.5884C75.2202 28.7938 76.5478 30.1213 76.5478 31.7531V34.3487C75.099 34.8127 74.2118 35.884 73.5207 36.7213C72.691 37.7268 72.2512 38.2102 71.3267 38.2102C70.4025 38.2102 69.9625 37.7268 69.133 36.7213C68.2257 35.6218 66.9833 34.1159 64.5706 34.1159C62.158 34.1159 60.9156 35.6218 60.0088 36.7213C59.1793 37.7268 58.7395 38.2102 57.8155 38.2102C56.8914 38.2102 56.4514 37.7268 55.6219 36.7213C54.7149 35.6218 53.4725 34.1159 51.0599 34.1159C48.6474 34.1159 47.405 35.6218 46.4979 36.7213C45.6684 37.7268 45.2286 38.2102 44.3048 38.2102C43.3809 38.2102 42.941 37.7268 42.1117 36.7213C41.2046 35.6218 39.9622 34.1159 37.5496 34.1159C35.1371 34.1159 33.8951 35.6218 32.988 36.7215C32.1587 37.727 31.719 38.2102 30.7953 38.2102C29.8717 38.2102 29.4319 37.7268 28.6026 36.7215C27.6958 35.622 26.4536 34.1159 24.0412 34.1159C21.6287 34.1159 20.3863 35.6218 19.4792 36.7213C18.6497 37.7268 18.21 38.2102 17.2861 38.2102C16.3622 38.2102 15.9225 37.7268 15.093 36.7215C14.4021 35.884 13.5151 34.8127 12.0665 34.3487V31.7531C12.0663 30.1213 13.3937 28.7938 15.0254 28.7938Z" fill="#222222"/>
<path id="Vector_2" d="M44.3312 58.885H34.8122C33.9643 58.885 33.2769 59.5724 33.2769 60.4204C33.2769 61.2683 33.9643 61.9557 34.8122 61.9557H44.3312C45.1791 61.9557 45.8665 61.2683 45.8665 60.4204C45.8665 59.5724 45.1791 58.885 44.3312 58.885Z" fill="#222222"/>
<path id="Vector_3" d="M39.8278 10.1118C40.8155 11.0994 42.113 11.5931 43.4103 11.5931C44.7078 11.5931 46.0052 11.0994 46.9928 10.1116C48.9683 8.13633 48.9683 4.92192 46.9928 2.94664L44.4959 0.449755C44.2081 0.161723 43.8175 0 43.4103 0C43.0031 0 42.6125 0.161723 42.3247 0.449755L39.8278 2.94664C37.8523 4.92213 37.8523 8.13633 39.8278 10.1118ZM41.999 5.11804L43.4103 3.70675L44.8216 5.11804C45.5997 5.89616 45.5997 7.16231 44.8216 7.94042C44.0435 8.71895 42.7771 8.71874 41.999 7.94042C41.2209 7.16231 41.2209 5.89616 41.999 5.11804Z" fill="#222222"/>
<path id="Vector_4" d="M23.7072 10.1118C24.6949 11.0994 25.9924 11.5931 27.2897 11.5931C28.5872 11.5931 29.8846 11.0994 30.8722 10.1116C32.8477 8.13633 32.8477 4.92192 30.8722 2.94664L28.3753 0.449755C28.0875 0.161723 27.6969 0 27.2897 0C26.8825 0 26.4919 0.161723 26.2041 0.449755L23.7072 2.94664C21.7317 4.92213 21.7317 8.13633 23.7072 10.1118ZM25.8784 5.11804L27.2897 3.70675L28.701 5.11804C29.4791 5.89616 29.4791 7.16231 28.701 7.94042C27.9229 8.71895 26.6565 8.71874 25.8784 7.94042C25.1003 7.16231 25.1003 5.89616 25.8784 5.11804Z" fill="#222222"/>
<path id="Vector_5" d="M55.9479 10.1118C56.9357 11.0994 58.2331 11.5931 59.5304 11.5931C60.8279 11.5931 62.1254 11.0994 63.1129 10.1116C65.0884 8.13633 65.0884 4.92192 63.1129 2.94664L60.616 0.449755C60.3282 0.161723 59.9376 0 59.5304 0C59.1232 0 58.7326 0.161723 58.4448 0.449755L55.9479 2.94664C53.9724 4.92213 53.9724 8.13633 55.9479 10.1118ZM58.1191 5.11804L59.5304 3.70675L60.9417 5.11804C61.7198 5.89616 61.7198 7.16231 60.9417 7.94042C60.1636 8.71895 58.8972 8.71874 58.1191 7.94042C57.341 7.16231 57.341 5.89616 58.1191 5.11804Z" fill="#222222"/>
<path id="Vector_6" d="M14.2399 75.5683H3.0707V59.9088H27.6349V61.0552C27.6349 61.9031 28.3223 62.5905 29.1702 62.5905C30.0181 62.5905 30.7056 61.9031 30.7056 61.0552V50.0829C30.7056 49.235 30.0181 48.5476 29.1702 48.5476H1.53535C0.687428 48.5476 0 49.235 0 50.0829V77.1037C0 77.9516 0.687428 78.639 1.53535 78.639H14.2399C15.0878 78.639 15.7752 77.9516 15.7752 77.1037C15.7752 76.2557 15.0878 75.5683 14.2399 75.5683ZM27.6349 51.6183V56.8381H3.0707V51.6183H27.6349Z" fill="#222222"/>
<path id="Vector_7" d="M88.4646 46.7877H49.0212C48.1733 46.7877 47.4858 47.4751 47.4858 48.323V68.807C47.4858 69.655 48.1733 70.3424 49.0212 70.3424H88.4646C89.3125 70.3424 89.9999 69.655 89.9999 68.807V48.323C89.9999 47.4749 89.3125 46.7877 88.4646 46.7877ZM86.9292 54.6886H70.2782V49.8582H86.9292V54.6886ZM67.2075 49.8584V54.6888H50.5565V49.8584H67.2075ZM50.5565 57.7593H67.2075V67.2715H50.5565V57.7593ZM70.2782 67.2715V57.7593H86.9292V67.2715H70.2782Z" fill="#222222"/>
<path id="Vector_8" d="M41.7407 64.9611H19.7131C18.8652 64.9611 18.1777 65.6485 18.1777 66.4964V81.7093C18.1777 82.5572 18.8652 83.2447 19.7131 83.2447H41.7407C42.5886 83.2447 43.276 82.5572 43.276 81.7093V66.4964C43.276 65.6485 42.5886 64.9611 41.7407 64.9611ZM40.2053 72.5676H32.2622V68.0318H40.2053V72.5676ZM29.1915 68.0318V72.5676H21.2484V68.0318H29.1915ZM21.2484 75.6383H29.1915V80.1742H21.2484V75.6383ZM32.2622 80.1742V75.6383H40.2053V80.1742H32.2622Z" fill="#222222"/>
</g>
</svg>
